<svg xmlns="http://www.w3.org/2000/svg" width="83" height="96" fill-rule="evenodd"><g fill="#7ab6d0"><path d="M52.235 35.23c0 3.73-3.017 6.755-6.723 6.755-3.693 0-6.68-2.995-6.723-6.7-18.703 1.23-16.17 23.9-16.17 33.24l16.088.113h14.76l16.406-.113c0-9.578 2.67-33.167-17.637-33.295"/><path d="M23.31 67.836l15.397.107h14.76l15.715-.107.04-2.4c.18-7.573.443-19.015-5.533-25.206-2.6-2.702-6.24-4.147-10.8-4.3-.36 3.777-3.54 6.742-7.387 6.742-3.804 0-6.958-2.92-7.36-6.646C22.618 37.56 23.02 54.98 23.268 65.447l.04 2.39zm15.397 1.498l-16.088-.113c-.387-.003-.692-.313-.692-.696l-.04-3.046c-.25-10.392-.692-29.735 16.863-30.9a.7.7 0 0 1 .512.185c.152.13.22.312.22.502.04 3.315 2.74 6.012 6.03 6.012 3.32 0 6.03-2.72 6.03-6.06a.67.67 0 0 1 .208-.493c.124-.13.3-.248.484-.202 5.257.033 9.448 1.626 12.45 4.735 6.377 6.61 6.1 18.404 5.92 26.208l-.04 3.048c0 .383-.304.693-.692.696l-16.406.113h-14.76z"/></g><g fill="#203150"><path d="M53.065 32.1c-1.618 0-3.486-.224-5.602-.673-.747-.16-1.23-.896-1.08-1.647.166-.753.9-1.234 1.646-1.075 6.03 1.28 8.203.302 8.95-.392.346-.316.484-.66.526-.893-.72-1.073-2.172-3.86-2.573-9.596a1.39 1.39 0 0 1 1.286-1.486c.747-.046 1.425.523 1.48 1.3.443 6.294 2.213 8.387 2.24 8.408l.277.324.07.452c.028.205.194 2.048-1.44 3.553-1.26 1.156-3.196 1.736-5.782 1.736M29.84 32.1c-2.587 0-4.537-.58-5.782-1.736-1.646-1.505-1.466-3.35-1.452-3.553l.055-.463.332-.335s1.77-2.093 2.213-8.385c.055-.767.72-1.333 1.48-1.3.76.054 1.328.72 1.287 1.486-.415 5.738-1.854 8.527-2.587 9.597.055.24.194.6.58.932.775.673 2.96 1.613 8.9.352.747-.16 1.48.323 1.632 1.075.166.75-.318 1.5-1.065 1.647-2.117.45-3.984.673-5.603.673"/><path d="M41.5 2.783c-7.442 0-13.487 6.088-13.487 13.57s6.045 13.57 13.488 13.57S55 23.834 55 16.352s-6.06-13.57-13.5-13.57zm0 29.923c-8.964 0-16.254-7.336-16.254-16.353S32.536 0 41.5 0s16.268 7.335 16.268 16.352S50.464 32.705 41.5 32.705z"/><path d="M26.85 15.36a1.38 1.38 0 0 1-1.273-.85c-.304-.708.028-1.523.733-1.823a13.52 13.52 0 0 0 8.037-10.129 1.37 1.37 0 0 1 1.591-1.128 1.38 1.38 0 0 1 1.12 1.613 16.26 16.26 0 0 1-9.669 12.206 1.39 1.39 0 0 1-.54.111"/><path d="M50.8 15.175c-7.484 0-13.972-5.092-15.784-12.385-.18-.744.277-1.5 1-1.686a1.38 1.38 0 0 1 1.674 1.014c1.508 6.05 6.9 10.275 13.1 10.275a14.92 14.92 0 0 0 .706-.017 1.38 1.38 0 0 1 1.439 1.319 1.38 1.38 0 0 1-1.3 1.459c-.3.014-.567.02-.844.02m-9.305 23.32c-.207 0-.415-.008-.622-.026-3.237-.287-5.893-2.848-6.308-6.093-.097-.762.443-1.46 1.203-1.557.747-.1 1.44.44 1.535 1.203a4.25 4.25 0 0 0 3.818 3.674c.816.07 1.62-.095 2.338-.483.678-.365 1.522-.1 1.88.57s.1 1.52-.567 1.884c-1 .545-2.146.828-3.28.828"/><path d="M34 65.26l-16.1-.112c-.76-.006-1.37-.627-1.37-1.4l-.055-3.04c-.18-7.937-.458-19.932 6.156-26.744 3.168-3.258 7.567-4.9 13.072-4.9a1.38 1.38 0 1 1 0 2.783c-4.8 0-8.424 1.333-11.094 4.072-5.796 5.974-5.533 17.265-5.367 24.735l.042 1.722 14.72.103a1.38 1.38 0 0 1 1.37 1.401c0 .765-.622 1.382-1.383 1.382m14.76-.002c-.76 0-1.37-.616-1.383-1.382 0-.768.6-1.395 1.383-1.4l15.05-.103.028-1.722c.18-7.47.443-18.76-5.367-24.735-2.656-2.74-6.294-4.072-11.094-4.072a1.39 1.39 0 1 1 0-2.783c5.52 0 9.918 1.653 13.072 4.9 6.626 6.812 6.35 18.806 6.156 26.744l-.04 3.04c0 .765-.623 1.386-1.383 1.4l-16.42.113"/></g><path d="M41.5 63.784V47.407c-1.88-1.888-6.03 6.123-7.25 8.765-1.12 2.42-1.425 5.724.456 7.612 1.867 1.888 4.91 1.888 6.792 0" fill="#fffffe"/><path d="M40.117 49.135c-1.148 1.226-2.974 4.092-4.62 7.624-.885 1.926-1.217 4.637.18 6.04 1.176 1.173 3.14 1.31 4.44.35V49.135zm-2.02 17.457c-1.646 0-3.196-.648-4.37-1.824-2.352-2.362-2.06-6.315-.733-9.184 1.3-2.784 4.606-9.315 7.442-9.816a2.25 2.25 0 0 1 2.047.655c.263.26.4.615.4.984v16.377a1.38 1.38 0 0 1-.401.984 6.15 6.15 0 0 1-4.385 1.824z" fill="#203150"/><path d="M41.5 63.784V47.407c1.88-1.888 6.03 6.123 7.25 8.765 1.12 2.42 1.425 5.724-.456 7.612-1.867 1.888-4.91 1.888-6.792 0" fill="#fffffe"/><path d="M42.883 63.15c1.314.963 3.265.822 4.44-.35 1.397-1.404 1.065-4.115.18-6.04-1.646-3.534-3.474-6.4-4.62-7.626V63.15zm2.02 3.442a6.15 6.15 0 0 1-4.385-1.824 1.44 1.44 0 0 1-.401-.984V47.407a1.44 1.44 0 0 1 .4-.984c.567-.56 1.3-.8 2.06-.655 2.822.502 6.142 7.032 7.43 9.816 1.328 2.87 1.618 6.822-.733 9.184a6.12 6.12 0 0 1-4.371 1.824zM56.33 57.8h-3.348a1.38 1.38 0 1 1 0-2.783h3.348a1.39 1.39 0 1 1 0 2.783m-26.23 0h-3.348a1.39 1.39 0 1 1 0-2.783H30.1a1.39 1.39 0 1 1 0 2.783m-4.854 13.986a1.39 1.39 0 0 1-1.383-1.391V63.87a1.39 1.39 0 0 1 1.383-1.391 1.39 1.39 0 0 1 1.383 1.391v6.525a1.39 1.39 0 0 1-1.383 1.391m32.754 0a1.39 1.39 0 0 1-1.383-1.391V63.87A1.39 1.39 0 0 1 58 62.479a1.38 1.38 0 0 1 1.383 1.391v6.525A1.38 1.38 0 0 1 58 71.786m-1.66 3.574c-7.705 3.002-15.037 6.948-15.535 7.214-.18.103-19.035 10.257-27.46 10.257-4.786 0-10.375-3.907-10.375-8.943s5.6-8.945 10.375-8.945c4.15 0 11.814 2.6 21.594 7.292a1.48 1.48 0 0 0 1.978-.701 1.51 1.51 0 0 0-.692-2c-2.905-1.4-6.225-2.888-9.53-4.184h.014c-1.425-.622-2.587-.85-2.988-1.1-3.873-1.357-7.567-2.3-10.375-2.3C7.04 71.96 0 77.062 0 83.887s7.04 11.925 13.335 11.925c9.172 0 28.068-10.18 28.87-10.613.194-.103 19.035-10.257 27.46-10.257 4.8 0 10.375 3.907 10.375 8.945s-5.575 8.943-10.375 8.943c-4.15 0-11.827-2.595-21.62-7.307-.747-.355-1.632-.04-1.978.7a1.49 1.49 0 0 0 .692 1.988c7.207 3.467 17.03 7.6 22.908 7.6 6.294 0 13.335-5.1 13.335-11.925S75.96 71.96 69.665 71.96c-2.8 0-6.543.96-10.375 2.3" fill="#203150"/></svg>