<svg xmlns="http://www.w3.org/2000/svg" width="79" height="104" fill-rule="evenodd"><path d="M70.893 44.855c0 14.578-11.76 26.397-26.26 26.397-14.513 0-26.274-11.82-26.274-26.397S30.12 18.46 44.632 18.46c14.5 0 26.26 11.818 26.26 26.396" fill="#7db6d0"/><g fill="#203150"><path d="M52.66 103.808c-.102 0-.204-.013-.306-.037a1.26 1.26 0 0 1-.879-.805l-7.913-21.84a1.28 1.28 0 0 1 .765-1.64c.65-.24 1.39.1 1.63.766l7.263 20.047 7.875-7.187c.242-.225.573-.346.905-.33l10.627.415-7.824-21.622a1.28 1.28 0 0 1 .765-1.64c.65-.245 1.39.1 1.63.764l8.473 23.415a1.25 1.25 0 0 1-.166 1.192c-.242.344-.626.547-1.083.524l-12.003-.47-8.894 8.116c-.242.216-.548.333-.866.333"/><path d="M57.348 97.965a1.28 1.28 0 0 1-1.198-.843L52.8 87.87a1.28 1.28 0 0 1 .765-1.642 1.27 1.27 0 0 1 1.631.764l3.35 9.252a1.28 1.28 0 0 1-.765 1.642 1.26 1.26 0 0 1-.433.078m-29.803 5.362a1.24 1.24 0 0 1-.854-.333l-8.907-8.116-12.003.47a1.31 1.31 0 0 1-1.083-.524 1.32 1.32 0 0 1-.166-1.192l7.773-21.47a1.28 1.28 0 0 1 1.63-.766 1.28 1.28 0 0 1 .765 1.64l-7.123 19.68 10.627-.415a1.24 1.24 0 0 1 .905.33l7.887 7.187 6.893-19.05c.24-.665.98-1.006 1.63-.766a1.28 1.28 0 0 1 .765 1.64l-7.543 20.842a1.3 1.3 0 0 1-.892.805c-.102.024-.204.037-.306.037"/><path d="M13.057 93.896a1.17 1.17 0 0 1-.433-.078 1.28 1.28 0 0 1-.765-1.642l3.35-9.25c.242-.665.968-1 1.63-.764a1.28 1.28 0 0 1 .765 1.64l-3.35 9.252c-.192.52-.675.843-1.198.843m21.1-21.84a1.25 1.25 0 0 1 .841.319l4.472 3.95 4.46-3.95c.37-.327.892-.4 1.35-.214l5.466 2.37 3.033-5.142c.255-.426.7-.672 1.2-.622l5.925.556 1.3-5.833a1.29 1.29 0 0 1 .968-.969l5.8-1.3-.56-5.953a1.26 1.26 0 0 1 .624-1.22l5.1-3.05-2.357-5.5c-.2-.455-.102-.98.215-1.353l3.94-4.488-3.94-4.5a1.31 1.31 0 0 1-.215-1.353l2.357-5.5-5.1-3.048a1.26 1.26 0 0 1-.624-1.222l.56-5.953-5.8-1.3c-.484-.108-.854-.485-.968-.97l-1.3-5.833-5.925.557a1.24 1.24 0 0 1-1.2-.622L50.735 4.78 45.27 7.15a1.27 1.27 0 0 1-1.35-.214l-4.46-3.95-4.472 3.95c-.37.328-.892.4-1.338.214l-5.466-2.37-3.033 5.144c-.255.425-.726.67-1.2.622l-5.925-.557-1.312 5.834a1.27 1.27 0 0 1-.956.968l-5.8 1.3.56 5.953a1.31 1.31 0 0 1-.624 1.222L4.75 28.323l2.357 5.5a1.28 1.28 0 0 1-.204 1.353l-3.937 4.5 3.937 4.488a1.28 1.28 0 0 1 .204 1.353l-2.357 5.5 5.122 3.05c.42.252.663.727.624 1.22l-.56 5.953 5.8 1.3a1.28 1.28 0 0 1 .956.97l1.312 5.833 5.925-.556a1.24 1.24 0 0 1 1.2.622l3.033 5.142 5.466-2.37a1.22 1.22 0 0 1 .497-.105zm5.313 7.255c-.306 0-.6-.106-.84-.32l-4.702-4.158-5.76 2.494c-.586.257-1.274.032-1.593-.524L23.366 71.4l-6.23.585c-.624.064-1.223-.365-1.363-.994l-1.376-6.14-6.116-1.38a1.27 1.27 0 0 1-.981-1.369l.573-6.268-5.377-3.2c-.56-.33-.777-1.018-.522-1.6l2.485-5.78L.315 40.5a1.29 1.29 0 0 1 0-1.692l4.14-4.725-2.485-5.78a1.26 1.26 0 0 1 .522-1.6l5.377-3.2-.573-6.268a1.27 1.27 0 0 1 .981-1.369l6.116-1.378 1.376-6.143c.14-.63.74-1.046 1.363-.994l6.23.586 3.198-5.415c.32-.556 1.007-.78 1.593-.524l5.76 2.494L38.618.32a1.27 1.27 0 0 1 1.682 0L45 4.477l5.747-2.494a1.27 1.27 0 0 1 1.605.524l3.198 5.415 6.23-.586c.624-.053 1.223.365 1.363.994l1.376 6.143 6.103 1.378a1.28 1.28 0 0 1 .994 1.369l-.586 6.268 5.4 3.2a1.29 1.29 0 0 1 .522 1.61l-2.485 5.78 4.14 4.725a1.29 1.29 0 0 1 0 1.692l-4.14 4.726L76.952 51a1.29 1.29 0 0 1-.522 1.61l-5.4 3.2.586 6.268a1.28 1.28 0 0 1-.994 1.369l-6.103 1.38-1.376 6.14a1.28 1.28 0 0 1-1.363.994l-6.23-.585-3.198 5.414a1.28 1.28 0 0 1-1.605.524L45 74.833 40.3 79a1.28 1.28 0 0 1-.841.32zM39.46 66.9c-14.946 0-27.115-12.222-27.115-27.244 0-6.278 2.18-12.404 6.13-17.252.446-.547 1.25-.627 1.797-.18.535.448.624 1.255.178 1.803-3.58 4.4-5.555 9.94-5.555 15.628 0 13.6 11.022 24.683 24.566 24.683s24.554-11.072 24.554-24.683-11-24.683-24.554-24.683c-4.192 0-8.32 1.078-11.965 3.117a1.27 1.27 0 0 1-1.733-.494c-.344-.617-.115-1.397.497-1.74 4.014-2.25 8.575-3.442 13.2-3.442 14.946 0 27.102 12.22 27.102 27.244S54.405 66.9 39.46 66.9"/></g></svg>