<svg xmlns="http://www.w3.org/2000/svg" width="77" height="83" fill-rule="evenodd"><path fill="#76b7d3" d="M25.425 7.035v48.576l18.31-10.585L62.03 55.612V7.035H25.425"/><g fill="#161e37"><path d="M38.022 83c-.216 0-.417-.04-.618-.12l-.43-.186C-5.637 65.947.246 12.702.308 12.165s.416-.994.924-1.207l9.687-4.112c.785-.33 1.68.024 2.017.785s-.015 1.654-.8 1.986l-8.84 3.755C2.74 20.137.616 65.046 38.022 79.854 75.413 65.02 73.288 20.136 72.75 13.37l-17.032-7.23c-.787-.332-1.14-1.22-.8-1.984.322-.762 1.232-1.117 2.017-.786l17.88 7.586c.508.213.847.675.907 1.207.08.537 5.946 53.782-36.68 70.54l-.417.175c-.2.08-.4.12-.6.12"/><path d="M56.317 51.594a1.62 1.62 0 0 1-.785-.208l-17.5-10.135-17.525 10.135a1.55 1.55 0 0 1-1.54.009 1.48 1.48 0 0 1-.785-1.3V1.5c0-.835.693-1.5 1.54-1.5h22.33c.847 0 1.54.675 1.54 1.5S42.9 3 42.052 3h-20.8v44.425L37.237 38.2c.477-.28 1.078-.28 1.57 0l15.97 9.245V3.018h-4.173c-.847 0-1.54-.675-1.54-1.5S49.757 0 50.604 0h5.713c.862 0 1.54.675 1.54 1.5v48.576a1.5 1.5 0 0 1-.77 1.31c-.246.133-.508.2-.77.2M38.022 69.22c-.862 0-1.54-.675-1.54-1.5V44.026c0-.835.678-1.5 1.54-1.5.847 0 1.54.675 1.54 1.5V67.7c0 .835-.693 1.5-1.54 1.5m-2.987-40.852c-.4 0-.8-.148-1.095-.442l-3.987-3.913a1.49 1.49 0 0 1 0-2.134 1.55 1.55 0 0 1 2.17 0l2.9 2.846L43.905 16c.616-.6 1.585-.6 2.187 0a1.49 1.49 0 0 1 0 2.134l-9.98 9.773a1.53 1.53 0 0 1-1.078.442"/></g></svg>